<svg width="41" height="33" viewBox="0 0 41 33" fill="none" xmlns="http://www.w3.org/2000/svg">
<path d="M34.7308 3.57773C32.042 2.32546 29.1974 1.43567 26.2723 0.931885C25.908 1.58757 25.4823 2.46946 25.1887 3.17105C22.0349 2.69902 18.9101 2.69902 15.8143 3.17105C15.5209 2.46962 15.0856 1.58757 14.7179 0.931885C11.7899 1.43591 8.94289 2.32796 6.25281 3.58426C0.899746 11.6363 -0.551429 19.488 0.174079 27.2287C3.72458 29.8678 7.16538 31.4711 10.5482 32.5202C11.3889 31.3694 12.1321 30.151 12.77 28.8777C11.5555 28.4174 10.3846 27.8502 9.27127 27.1827C9.56424 26.9666 9.85032 26.7413 10.1291 26.5073C16.8752 29.6481 24.2052 29.6481 30.8709 26.5073C31.1509 26.7398 31.4368 26.965 31.7285 27.1827C30.6135 27.8519 29.4404 28.4203 28.2234 28.881C28.8649 30.1595 29.6068 31.3791 30.4452 32.5234C33.8312 31.4744 37.2752 29.8712 40.8257 27.2287C41.6771 18.2554 39.3715 10.4755 34.7308 3.57757V3.57773ZM13.6892 22.4683C11.664 22.4683 10.0032 20.5864 10.0032 18.2948C10.0032 16.0032 11.6286 14.1181 13.6892 14.1181C15.7499 14.1181 17.4106 15.9998 17.3752 18.2948C17.3784 20.5864 15.7499 22.4683 13.6892 22.4683ZM27.3106 22.4683C25.2854 22.4683 23.6248 20.5864 23.6248 18.2948C23.6248 16.0032 25.2501 14.1181 27.3106 14.1181C29.3714 14.1181 31.032 15.9998 30.9966 18.2948C30.9966 20.5864 29.3714 22.4683 27.3106 22.4683V22.4683Z" fill="#5865F2"/>
</svg>
