<svg width="24" height="24" viewBox="0 0 24 24" fill="none" xmlns="http://www.w3.org/2000/svg">
<g clip-path="url(#clip0)">
<path d="M12.0001 1.45085e-05C11.7461 -0.00102568 11.4965 0.0655882 11.2768 0.193008C11.0571 0.320428 10.8753 0.504056 10.7501 0.725015L7.08209 7.08201L0.725087 10.75C0.504803 10.876 0.321724 11.058 0.194393 11.2775C0.0670616 11.497 0 11.7462 0 12C0 12.2538 0.0670616 12.503 0.194393 12.7226C0.321724 12.9421 0.504803 13.124 0.725087 13.25L7.08209 16.918L10.7501 23.275C10.8761 23.4953 11.058 23.6784 11.2775 23.8057C11.4971 23.933 11.7463 24.0001 12.0001 24.0001C12.2539 24.0001 12.5031 23.933 12.7226 23.8057C12.9421 23.6784 13.1241 23.4953 13.2501 23.275L16.9181 16.918L23.2751 13.25C24.2421 12.706 24.2421 11.305 23.2751 10.75L16.9181 7.08201L13.2501 0.725015C13.125 0.503986 12.9432 0.320301 12.7235 0.19287C12.5038 0.0654401 12.2541 -0.00112984 12.0001 1.45085e-05ZM12.0061 4.23701L19.7631 12.006L11.9941 19.763L4.23709 12.006L12.0061 4.23701ZM11.9941 7.34901L7.33809 12.006L11.9941 16.662L16.6511 12.006L11.9941 7.34901Z" fill="black"/>
</g>
<defs>
<clipPath id="clip0">
<rect width="24" height="24" fill="white"/>
</clipPath>
</defs>
</svg>
